<svg id="visual" viewBox="0 0 960 540" width="960" height="540" xmlns="http://www.w3.org/2000/svg" xmlns:xlink="http://www.w3.org/1999/xlink" version="1.1"><rect x="0" y="0" width="960" height="540" fill="#001220"></rect><defs><linearGradient id="grad1_0" x1="43.8%" y1="0%" x2="100%" y2="100%"><stop offset="14.444444444444446%" stop-color="#001220" stop-opacity="1"></stop><stop offset="85.55555555555554%" stop-color="#001220" stop-opacity="1"></stop></linearGradient></defs><defs><linearGradient id="grad2_0" x1="0%" y1="0%" x2="56.3%" y2="100%"><stop offset="14.444444444444446%" stop-color="#001220" stop-opacity="1"></stop><stop offset="85.55555555555554%" stop-color="#001220" stop-opacity="1"></stop></linearGradient></defs><g transform="translate(960, 0)"><path d="M0 540C-44.2 497 -88.4 454 -144.3 444.1C-200.3 434.3 -267.9 457.5 -317.4 436.9C-366.9 416.2 -398.1 351.6 -402.1 292.1C-406.1 232.6 -382.9 178.2 -401.3 130.4C-419.8 82.6 -479.9 41.3 -540 0L0 0Z" fill="#5dd518"></path></g><g transform="translate(0, 540)"><path d="M0 -540C51.3 -513.1 102.6 -486.2 151.7 -467C200.8 -447.7 247.7 -436.1 302.1 -415.8C356.6 -395.5 418.6 -366.5 436.9 -317.4C455.1 -268.3 429.5 -199 439.4 -142.8C449.3 -86.5 494.6 -43.3 540 0L0 0Z" fill="#5dd518"></path></g></svg>