<svg id="visual" viewBox="0 0 960 540" width="960" height="540" xmlns="http://www.w3.org/2000/svg" xmlns:xlink="http://www.w3.org/1999/xlink" version="1.1"><rect x="0" y="0" width="960" height="540" fill="#001220"></rect><defs><linearGradient id="grad1_0" x1="43.8%" y1="0%" x2="100%" y2="100%"><stop offset="14.444444444444446%" stop-color="#001220" stop-opacity="1"></stop><stop offset="85.55555555555554%" stop-color="#001220" stop-opacity="1"></stop></linearGradient></defs><defs><linearGradient id="grad2_0" x1="0%" y1="0%" x2="56.3%" y2="100%"><stop offset="14.444444444444446%" stop-color="#001220" stop-opacity="1"></stop><stop offset="85.55555555555554%" stop-color="#001220" stop-opacity="1"></stop></linearGradient></defs><g transform="translate(960, 0)"><path d="M0 540C-59.4 535.7 -118.8 531.4 -161.3 496.5C-203.8 461.5 -229.4 395.8 -255.1 351.1C-280.8 306.4 -306.4 282.7 -356 258.6C-405.5 234.5 -478.9 210 -513.6 166.9C-548.2 123.7 -544.1 61.8 -540 0L0 0Z" fill="#5dd518"></path></g><g transform="translate(0, 540)"><path d="M0 -540C61 -538.1 122 -536.1 163.5 -503.1C205 -470.1 227 -406 271.6 -373.8C316.1 -341.5 383.2 -341 428.8 -311.5C474.4 -282.1 498.6 -223.6 513.6 -166.9C528.5 -110.1 534.3 -55.1 540 0L0 0Z" fill="#5dd518"></path></g></svg>