<svg id="visual" viewBox="0 0 960 540" width="960" height="540" xmlns="http://www.w3.org/2000/svg" xmlns:xlink="http://www.w3.org/1999/xlink" version="1.1"><rect x="0" y="0" width="960" height="540" fill="#001220"></rect><defs><linearGradient id="grad1_0" x1="43.8%" y1="0%" x2="100%" y2="100%"><stop offset="14.444444444444446%" stop-color="#001220" stop-opacity="1"></stop><stop offset="85.55555555555554%" stop-color="#001220" stop-opacity="1"></stop></linearGradient></defs><defs><linearGradient id="grad2_0" x1="0%" y1="0%" x2="56.3%" y2="100%"><stop offset="14.444444444444446%" stop-color="#001220" stop-opacity="1"></stop><stop offset="85.55555555555554%" stop-color="#001220" stop-opacity="1"></stop></linearGradient></defs><g transform="translate(960, 0)"><path d="M0 540C-42.3 478.7 -84.6 417.3 -125.8 387.1C-167 356.8 -207.1 357.6 -253.3 348.7C-299.5 339.7 -351.8 321 -399.7 290.4C-447.5 259.7 -490.9 217.2 -513.6 166.9C-536.2 116.5 -538.1 58.2 -540 0L0 0Z" fill="#5dd518"></path></g><g transform="translate(0, 540)"><path d="M0 -540C61.7 -539.9 123.3 -539.8 165.6 -509.8C207.9 -479.7 230.8 -419.7 282.7 -389.1C334.6 -358.6 415.6 -357.5 436.9 -317.4C458.2 -277.3 419.8 -198.2 427 -138.7C434.3 -79.3 487.1 -39.7 540 0L0 0Z" fill="#5dd518"></path></g></svg>