<svg id="visual" viewBox="0 0 960 540" width="960" height="540" xmlns="http://www.w3.org/2000/svg" xmlns:xlink="http://www.w3.org/1999/xlink" version="1.1"><rect x="0" y="0" width="960" height="540" fill="#001220"></rect><g fill="none" stroke="#2a1781" stroke-width="2"><circle r="32" cx="528" cy="115"></circle><circle r="1" cx="410" cy="65"></circle><circle r="8" cx="337" cy="351"></circle><circle r="1" cx="206" cy="423"></circle><circle r="15" cx="593" cy="534"></circle><circle r="7" cx="453" cy="436"></circle><circle r="27" cx="845" cy="289"></circle><circle r="23" cx="28" cy="182"></circle><circle r="27" cx="315" cy="54"></circle><circle r="29" cx="47" cy="328"></circle><circle r="14" cx="786" cy="185"></circle><circle r="14" cx="193" cy="237"></circle><circle r="16" cx="189" cy="122"></circle><circle r="30" cx="926" cy="120"></circle><circle r="28" cx="911" cy="254"></circle><circle r="16" cx="375" cy="4"></circle><circle r="30" cx="115" cy="364"></circle><circle r="16" cx="807" cy="32"></circle><circle r="10" cx="529" cy="356"></circle><circle r="30" cx="924" cy="351"></circle><circle r="9" cx="741" cy="466"></circle><circle r="30" cx="344" cy="427"></circle><circle r="26" cx="377" cy="243"></circle><circle r="3" cx="103" cy="465"></circle><circle r="10" cx="77" cy="9"></circle><circle r="16" cx="545" cy="198"></circle><circle r="18" cx="160" cy="10"></circle><circle r="12" cx="793" cy="114"></circle><circle r="17" cx="675" cy="273"></circle><circle r="17" cx="117" cy="217"></circle><circle r="12" cx="659" cy="518"></circle><circle r="6" cx="274" cy="197"></circle><circle r="6" cx="69" cy="96"></circle><circle r="24" cx="439" cy="520"></circle><circle r="21" cx="295" cy="277"></circle><circle r="16" cx="457" cy="164"></circle><circle r="11" cx="402" cy="329"></circle><circle r="29" cx="865" cy="395"></circle><circle r="11" cx="51" cy="411"></circle><circle r="5" cx="567" cy="33"></circle><circle r="9" cx="269" cy="499"></circle><circle r="24" cx="544" cy="423"></circle><circle r="22" cx="862" cy="154"></circle><circle r="9" cx="3" cy="502"></circle><circle r="27" cx="886" cy="45"></circle><circle r="5" cx="952" cy="524"></circle><circle r="13" cx="658" cy="161"></circle><circle r="9" cx="7" cy="56"></circle><circle r="21" cx="668" cy="349"></circle><circle r="15" cx="199" cy="339"></circle><circle r="1" cx="668" cy="69"></circle><circle r="17" cx="917" cy="450"></circle><circle r="5" cx="839" cy="470"></circle><circle r="5" cx="775" cy="253"></circle><circle r="7" cx="467" cy="24"></circle><circle r="11" cx="788" cy="332"></circle><circle r="20" cx="56" cy="256"></circle><circle r="6" cx="582" cy="273"></circle><circle r="2" cx="333" cy="528"></circle><circle r="19" cx="463" cy="295"></circle><circle r="9" cx="152" cy="538"></circle><circle r="23" cx="531" cy="505"></circle><circle r="17" cx="282" cy="114"></circle><circle r="5" cx="349" cy="140"></circle><circle r="11" cx="876" cy="536"></circle><circle r="11" cx="275" cy="388"></circle><circle r="14" cx="793" cy="530"></circle><circle r="20" cx="70" cy="539"></circle><circle r="7" cx="612" cy="431"></circle><circle r="6" cx="954" cy="13"></circle><circle r="14" cx="728" cy="5"></circle><circle r="8" cx="597" cy="100"></circle><circle r="21" cx="687" cy="417"></circle><circle r="10" cx="634" cy="5"></circle><circle r="17" cx="718" cy="197"></circle><circle r="5" cx="957" cy="197"></circle><circle r="15" cx="240" cy="4"></circle><circle r="15" cx="759" cy="398"></circle><circle r="3" cx="716" cy="121"></circle><circle r="13" cx="120" cy="142"></circle><circle r="5" cx="138" cy="295"></circle><circle r="1" cx="596" cy="363"></circle></g></svg>