<svg id="visual" viewBox="0 0 960 540" width="960" height="540" xmlns="http://www.w3.org/2000/svg" xmlns:xlink="http://www.w3.org/1999/xlink" version="1.1"><rect x="0" y="0" width="960" height="540" fill="#001220"></rect><g fill="none" stroke="#2a1781" stroke-width="2"><circle r="32" cx="101" cy="490"></circle><circle r="1" cx="513" cy="371"></circle><circle r="12" cx="464" cy="290"></circle><circle r="14" cx="600" cy="278"></circle><circle r="3" cx="285" cy="121"></circle><circle r="30" cx="97" cy="255"></circle><circle r="4" cx="691" cy="112"></circle><circle r="27" cx="767" cy="62"></circle><circle r="22" cx="306" cy="15"></circle><circle r="22" cx="259" cy="506"></circle><circle r="1" cx="459" cy="128"></circle><circle r="23" cx="874" cy="217"></circle><circle r="14" cx="830" cy="270"></circle><circle r="24" cx="735" cy="377"></circle><circle r="22" cx="1" cy="157"></circle><circle r="24" cx="170" cy="261"></circle><circle r="3" cx="377" cy="225"></circle><circle r="5" cx="922" cy="109"></circle><circle r="26" cx="206" cy="116"></circle><circle r="24" cx="721" cy="447"></circle><circle r="23" cx="308" cy="400"></circle><circle r="1" cx="463" cy="59"></circle><circle r="8" cx="913" cy="425"></circle><circle r="1" cx="751" cy="270"></circle><circle r="7" cx="348" cy="317"></circle><circle r="5" cx="579" cy="169"></circle><circle r="6" cx="39" cy="75"></circle><circle r="16" cx="403" cy="518"></circle><circle r="14" cx="481" cy="508"></circle><circle r="29" cx="239" cy="315"></circle><circle r="10" cx="193" cy="404"></circle><circle r="10" cx="116" cy="368"></circle><circle r="26" cx="19" cy="277"></circle><circle r="7" cx="374" cy="44"></circle><circle r="5" cx="581" cy="468"></circle><circle r="12" cx="742" cy="178"></circle><circle r="13" cx="512" cy="8"></circle><circle r="20" cx="658" cy="498"></circle><circle r="12" cx="642" cy="382"></circle><circle r="10" cx="854" cy="26"></circle><circle r="17" cx="679" cy="237"></circle><circle r="2" cx="926" cy="284"></circle><circle r="23" cx="507" cy="204"></circle><circle r="11" cx="356" cy="452"></circle><circle r="21" cx="848" cy="371"></circle><circle r="1" cx="798" cy="454"></circle><circle r="25" cx="641" cy="63"></circle><circle r="18" cx="119" cy="35"></circle><circle r="8" cx="833" cy="538"></circle><circle r="13" cx="16" cy="475"></circle><circle r="10" cx="300" cy="224"></circle><circle r="29" cx="207" cy="20"></circle><circle r="9" cx="180" cy="528"></circle><circle r="25" cx="550" cy="88"></circle><circle r="25" cx="452" cy="446"></circle><circle r="14" cx="32" cy="3"></circle><circle r="3" cx="38" cy="353"></circle><circle r="8" cx="140" cy="162"></circle><circle r="13" cx="806" cy="134"></circle><circle r="29" cx="935" cy="538"></circle><circle r="18" cx="66" cy="416"></circle><circle r="26" cx="598" cy="534"></circle><circle r="2" cx="948" cy="18"></circle><circle r="12" cx="379" cy="116"></circle><circle r="30" cx="233" cy="179"></circle><circle r="3" cx="413" cy="373"></circle><circle r="26" cx="735" cy="534"></circle><circle r="27" cx="685" cy="308"></circle><circle r="8" cx="943" cy="182"></circle><circle r="18" cx="44" cy="210"></circle><circle r="29" cx="699" cy="5"></circle><circle r="15" cx="951" cy="351"></circle><circle r="25" cx="68" cy="142"></circle><circle r="28" cx="597" cy="7"></circle><circle r="29" cx="330" cy="532"></circle><circle r="4" cx="650" cy="172"></circle><circle r="6" cx="580" cy="351"></circle><circle r="3" cx="866" cy="478"></circle><circle r="3" cx="531" cy="270"></circle></g></svg>