<svg id="visual" viewBox="0 0 960 540" width="960" height="540" xmlns="http://www.w3.org/2000/svg" xmlns:xlink="http://www.w3.org/1999/xlink" version="1.1"><rect x="0" y="0" width="960" height="540" fill="#001220"></rect><g fill="none" stroke="#2a1781" stroke-width="2"><circle r="32" cx="481" cy="211"></circle><circle r="1" cx="60" cy="362"></circle><circle r="26" cx="189" cy="113"></circle><circle r="24" cx="531" cy="493"></circle><circle r="7" cx="204" cy="458"></circle><circle r="23" cx="54" cy="11"></circle><circle r="25" cx="411" cy="306"></circle><circle r="23" cx="182" cy="353"></circle><circle r="26" cx="763" cy="211"></circle><circle r="12" cx="463" cy="410"></circle><circle r="4" cx="903" cy="258"></circle><circle r="26" cx="712" cy="25"></circle><circle r="24" cx="930" cy="520"></circle><circle r="19" cx="301" cy="114"></circle><circle r="29" cx="41" cy="123"></circle><circle r="18" cx="757" cy="133"></circle><circle r="19" cx="392" cy="494"></circle><circle r="8" cx="729" cy="539"></circle><circle r="19" cx="268" cy="208"></circle><circle r="27" cx="546" cy="319"></circle><circle r="9" cx="135" cy="480"></circle><circle r="18" cx="142" cy="412"></circle><circle r="17" cx="445" cy="76"></circle><circle r="30" cx="644" cy="456"></circle><circle r="25" cx="414" cy="156"></circle><circle r="19" cx="366" cy="371"></circle><circle r="29" cx="829" cy="138"></circle><circle r="3" cx="247" cy="70"></circle><circle r="21" cx="263" cy="496"></circle><circle r="12" cx="832" cy="267"></circle><circle r="7" cx="374" cy="38"></circle><circle r="28" cx="122" cy="43"></circle><circle r="20" cx="806" cy="364"></circle><circle r="26" cx="734" cy="354"></circle><circle r="16" cx="750" cy="462"></circle><circle r="29" cx="76" cy="287"></circle><circle r="27" cx="679" cy="219"></circle><circle r="3" cx="903" cy="89"></circle><circle r="3" cx="944" cy="336"></circle><circle r="30" cx="341" cy="222"></circle><circle r="2" cx="283" cy="387"></circle><circle r="2" cx="607" cy="215"></circle><circle r="8" cx="32" cy="509"></circle><circle r="9" cx="814" cy="55"></circle><circle r="22" cx="562" cy="397"></circle><circle r="7" cx="854" cy="433"></circle><circle r="28" cx="538" cy="81"></circle><circle r="14" cx="573" cy="148"></circle><circle r="20" cx="55" cy="435"></circle><circle r="18" cx="585" cy="30"></circle><circle r="18" cx="944" cy="449"></circle><circle r="19" cx="660" cy="305"></circle><circle r="24" cx="816" cy="531"></circle><circle r="3" cx="45" cy="218"></circle><circle r="0" cx="908" cy="165"></circle><circle r="25" cx="199" cy="243"></circle><circle r="13" cx="121" cy="162"></circle><circle r="27" cx="288" cy="303"></circle><circle r="25" cx="655" cy="81"></circle><circle r="22" cx="294" cy="7"></circle><circle r="28" cx="636" cy="372"></circle><circle r="21" cx="455" cy="534"></circle><circle r="16" cx="549" cy="251"></circle><circle r="26" cx="460" cy="8"></circle><circle r="1" cx="3" cy="282"></circle><circle r="28" cx="330" cy="531"></circle><circle r="14" cx="902" cy="12"></circle><circle r="9" cx="747" cy="281"></circle><circle r="9" cx="181" cy="532"></circle><circle r="7" cx="684" cy="150"></circle><circle r="15" cx="604" cy="524"></circle><circle r="5" cx="876" cy="365"></circle><circle r="16" cx="344" cy="439"></circle><circle r="6" cx="477" cy="341"></circle><circle r="25" cx="193" cy="24"></circle><circle r="25" cx="6" cy="63"></circle><circle r="5" cx="493" cy="138"></circle><circle r="13" cx="125" cy="239"></circle></g></svg>