<svg id="visual" viewBox="0 0 960 540" width="960" height="540" xmlns="http://www.w3.org/2000/svg" xmlns:xlink="http://www.w3.org/1999/xlink" version="1.1"><rect x="0" y="0" width="960" height="540" fill="#001220"></rect><g fill="none" stroke="#2a1781" stroke-width="2"><circle r="32" cx="50" cy="316"></circle><circle r="1" cx="861" cy="322"></circle><circle r="14" cx="949" cy="58"></circle><circle r="1" cx="706" cy="257"></circle><circle r="1" cx="650" cy="346"></circle><circle r="20" cx="371" cy="44"></circle><circle r="5" cx="701" cy="106"></circle><circle r="5" cx="213" cy="270"></circle><circle r="17" cx="370" cy="148"></circle><circle r="2" cx="194" cy="503"></circle><circle r="5" cx="442" cy="166"></circle><circle r="20" cx="775" cy="519"></circle><circle r="22" cx="117" cy="502"></circle><circle r="1" cx="802" cy="253"></circle><circle r="8" cx="236" cy="75"></circle><circle r="27" cx="2" cy="365"></circle><circle r="0" cx="19" cy="496"></circle><circle r="18" cx="511" cy="201"></circle><circle r="16" cx="38" cy="26"></circle><circle r="25" cx="453" cy="511"></circle><circle r="5" cx="374" cy="220"></circle><circle r="3" cx="55" cy="185"></circle><circle r="30" cx="545" cy="50"></circle><circle r="10" cx="487" cy="293"></circle><circle r="10" cx="572" cy="138"></circle><circle r="5" cx="220" cy="154"></circle><circle r="8" cx="185" cy="341"></circle><circle r="9" cx="116" cy="86"></circle><circle r="12" cx="944" cy="401"></circle><circle r="18" cx="321" cy="509"></circle><circle r="14" cx="428" cy="346"></circle><circle r="12" cx="946" cy="273"></circle><circle r="3" cx="554" cy="533"></circle><circle r="29" cx="296" cy="158"></circle><circle r="6" cx="577" cy="279"></circle><circle r="2" cx="388" cy="472"></circle><circle r="13" cx="688" cy="419"></circle><circle r="22" cx="886" cy="218"></circle><circle r="11" cx="297" cy="327"></circle><circle r="2" cx="823" cy="31"></circle><circle r="12" cx="877" cy="447"></circle><circle r="24" cx="134" cy="187"></circle><circle r="0" cx="471" cy="64"></circle><circle r="16" cx="778" cy="159"></circle><circle r="26" cx="654" cy="203"></circle><circle r="15" cx="550" cy="427"></circle><circle r="0" cx="167" cy="29"></circle><circle r="18" cx="72" cy="393"></circle><circle r="2" cx="782" cy="411"></circle><circle r="13" cx="867" cy="152"></circle><circle r="9" cx="665" cy="27"></circle><circle r="25" cx="176" cy="436"></circle><circle r="5" cx="610" cy="470"></circle><circle r="13" cx="753" cy="12"></circle><circle r="6" cx="444" cy="431"></circle><circle r="17" cx="742" cy="334"></circle><circle r="11" cx="261" cy="462"></circle><circle r="0" cx="289" cy="397"></circle><circle r="23" cx="295" cy="27"></circle><circle r="27" cx="925" cy="538"></circle><circle r="30" cx="659" cy="518"></circle><circle r="4" cx="284" cy="243"></circle><circle r="9" cx="12" cy="116"></circle><circle r="24" cx="502" cy="360"></circle><circle r="30" cx="127" cy="298"></circle><circle r="25" cx="843" cy="537"></circle><circle r="7" cx="365" cy="291"></circle><circle r="20" cx="6" cy="235"></circle><circle r="16" cx="872" cy="83"></circle><circle r="6" cx="951" cy="469"></circle><circle r="13" cx="899" cy="3"></circle><circle r="1" cx="358" cy="384"></circle><circle r="1" cx="938" cy="168"></circle><circle r="27" cx="578" cy="349"></circle><circle r="18" cx="582" cy="211"></circle><circle r="15" cx="607" cy="78"></circle><circle r="11" cx="440" cy="237"></circle><circle r="8" cx="430" cy="6"></circle><circle r="8" cx="232" cy="4"></circle><circle r="17" cx="779" cy="87"></circle></g></svg>