<svg id="visual" viewBox="0 0 960 540" width="960" height="540" xmlns="http://www.w3.org/2000/svg" xmlns:xlink="http://www.w3.org/1999/xlink" version="1.1"><rect x="0" y="0" width="960" height="540" fill="#140021"></rect><path d="M0 241L137 241L137 336L274 336L274 315L411 315L411 261L549 261L549 224L686 224L686 254L823 254L823 322L960 322L960 258L960 541L960 541L823 541L823 541L686 541L686 541L549 541L549 541L411 541L411 541L274 541L274 541L137 541L137 541L0 541Z" fill="#9900ff"></path><path d="M0 371L137 371L137 363L274 363L274 316L411 316L411 373L549 373L549 404L686 404L686 381L823 381L823 382L960 382L960 399L960 541L960 541L823 541L823 541L686 541L686 541L549 541L549 541L411 541L411 541L274 541L274 541L137 541L137 541L0 541Z" fill="#7700c6"></path><path d="M0 422L137 422L137 486L274 486L274 418L411 418L411 425L549 425L549 475L686 475L686 474L823 474L823 446L960 446L960 409L960 541L960 541L823 541L823 541L686 541L686 541L549 541L549 541L411 541L411 541L274 541L274 541L137 541L137 541L0 541Z" fill="#560090"></path></svg>