<svg id="visual" viewBox="0 0 900 600" width="900" height="600" xmlns="http://www.w3.org/2000/svg" xmlns:xlink="http://www.w3.org/1999/xlink" version="1.1"><rect x="0" y="0" width="900" height="600" fill="#002233"></rect><path d="M0 410L21.5 400.5C43 391 86 372 128.8 373C171.7 374 214.3 395 257.2 413.8C300 432.7 343 449.3 385.8 444C428.7 438.7 471.3 411.3 514.2 384.3C557 357.3 600 330.7 642.8 340.7C685.7 350.7 728.3 397.3 771.2 412.8C814 428.3 857 412.7 878.5 404.8L900 397L900 601L878.5 601C857 601 814 601 771.2 601C728.3 601 685.7 601 642.8 601C600 601 557 601 514.2 601C471.3 601 428.7 601 385.8 601C343 601 300 601 257.2 601C214.3 601 171.7 601 128.8 601C86 601 43 601 21.5 601L0 601Z" fill="#0066FF" stroke-linecap="round" stroke-linejoin="miter"></path></svg>