<svg id="visual" viewBox="0 0 960 540" width="960" height="540" xmlns="http://www.w3.org/2000/svg" xmlns:xlink="http://www.w3.org/1999/xlink" version="1.1"><rect x="0" y="0" width="960" height="540" fill="#002233"></rect><path d="M0 439L12.3 434.8C24.7 430.7 49.3 422.3 74 416.7C98.7 411 123.3 408 148 399C172.7 390 197.3 375 221.8 367.2C246.3 359.3 270.7 358.7 295.2 367.2C319.7 375.7 344.3 393.3 369 409.2C393.7 425 418.3 439 443 436.2C467.7 433.3 492.3 413.7 517 412.8C541.7 412 566.3 430 591 424C615.7 418 640.3 388 664.8 374.3C689.3 360.7 713.7 363.3 738.2 372C762.7 380.7 787.3 395.3 812 403.2C836.7 411 861.3 412 886 416.3C910.7 420.7 935.3 428.3 947.7 432.2L960 436L960 541L947.7 541C935.3 541 910.7 541 886 541C861.3 541 836.7 541 812 541C787.3 541 762.7 541 738.2 541C713.7 541 689.3 541 664.8 541C640.3 541 615.7 541 591 541C566.3 541 541.7 541 517 541C492.3 541 467.7 541 443 541C418.3 541 393.7 541 369 541C344.3 541 319.7 541 295.2 541C270.7 541 246.3 541 221.8 541C197.3 541 172.7 541 148 541C123.3 541 98.7 541 74 541C49.3 541 24.7 541 12.3 541L0 541Z" fill="#0066FF" stroke-linecap="round" stroke-linejoin="miter"></path></svg>